STARTFONT 2.1
FONT -FontForge-Everyday_Tiny_Bold-Book-R-Normal--4-40-75-75-P-47-ISO10646-1
SIZE 4 75 75
FONTBOUNDINGBOX 6 8 0 -1
COMMENT "Generated by fontforge, http://fontforge.sourceforge.net"
STARTPROPERTIES 38
FOUNDRY "FontForge"
FAMILY_NAME "Everyday_Tiny_Bold"
WEIGHT_NAME "Book"
SLANT "R"
SETWIDTH_NAME "Normal"
ADD_STYLE_NAME ""
PIXEL_SIZE 4
POINT_SIZE 40
RESOLUTION_X 75
RESOLUTION_Y 75
SPACING "P"
AVERAGE_WIDTH 47
CHARSET_REGISTRY "ISO10646"
CHARSET_ENCODING "1"
FONTNAME_REGISTRY ""
CHARSET_COLLECTIONS "ISO10646-1"
FONT_NAME "Everyday_Tiny_Bold"
FACE_NAME "Everyday_Tiny_Bold Regular"
FONT_VERSION "1.0"
FONT_ASCENT 3
FONT_DESCENT 1
UNDERLINE_POSITION 0
UNDERLINE_THICKNESS 1
X_HEIGHT 2
CAP_HEIGHT 3
RAW_ASCENT 798
RAW_DESCENT 201
NORM_SPACE 3
RELATIVE_WEIGHT 40
RELATIVE_SETWIDTH 50
SUPERSCRIPT_X 0
SUPERSCRIPT_Y 2
SUPERSCRIPT_SIZE 2
SUBSCRIPT_X 0
SUBSCRIPT_Y -1
SUBSCRIPT_SIZE 2
AVG_LOWERCASE_WIDTH 50
AVG_UPPERCASE_WIDTH 50
ENDPROPERTIES
CHARS 165
STARTCHAR uni000D
ENCODING 13
SWIDTH 250 0
DWIDTH 1 0
BBX 1 1 0 0
BITMAP
00
ENDCHAR
STARTCHAR space
ENCODING 32
SWIDTH 750 0
DWIDTH 3 0
BBX 1 1 0 0
BITMAP
00
ENDCHAR
STARTCHAR exclam
ENCODING 33
SWIDTH 750 0
DWIDTH 3 0
BBX 2 4 0 0
BITMAP
C0
C0
00
C0
ENDCHAR
STARTCHAR quotedbl
ENCODING 34
SWIDTH 1000 0
DWIDTH 4 0
BBX 3 2 0 3
BITMAP
A0
A0
ENDCHAR
STARTCHAR numbersign
ENCODING 35
SWIDTH 1500 0
DWIDTH 6 0
BBX 5 4 0 0
BITMAP
F8
58
F8
58
ENDCHAR
STARTCHAR dollar
ENCODING 36
SWIDTH 1250 0
DWIDTH 5 0
BBX 4 4 0 0
BITMAP
70
E0
70
E0
ENDCHAR
STARTCHAR percent
ENCODING 37
SWIDTH 1250 0
DWIDTH 5 0
BBX 4 4 0 0
BITMAP
B0
70
E0
D0
ENDCHAR
STARTCHAR ampersand
ENCODING 38
SWIDTH 1500 0
DWIDTH 6 0
BBX 5 4 0 0
BITMAP
E0
E8
D0
F0
ENDCHAR
STARTCHAR quotesingle
ENCODING 39
SWIDTH 500 0
DWIDTH 2 0
BBX 1 2 0 3
BITMAP
80
80
ENDCHAR
STARTCHAR parenleft
ENCODING 40
SWIDTH 1000 0
DWIDTH 4 0
BBX 3 4 0 0
BITMAP
60
C0
C0
60
ENDCHAR
STARTCHAR parenright
ENCODING 41
SWIDTH 1000 0
DWIDTH 4 0
BBX 3 4 0 0
BITMAP
C0
60
60
C0
ENDCHAR
STARTCHAR asterisk
ENCODING 42
SWIDTH 1000 0
DWIDTH 4 0
BBX 3 3 0 0
BITMAP
A0
40
A0
ENDCHAR
STARTCHAR plus
ENCODING 43
SWIDTH 1000 0
DWIDTH 4 0
BBX 3 3 0 0
BITMAP
40
E0
40
ENDCHAR
STARTCHAR comma
ENCODING 44
SWIDTH 500 0
DWIDTH 2 0
BBX 1 2 0 0
BITMAP
80
80
ENDCHAR
STARTCHAR hyphen
ENCODING 45
SWIDTH 1000 0
DWIDTH 4 0
BBX 3 1 0 1
BITMAP
E0
ENDCHAR
STARTCHAR period
ENCODING 46
SWIDTH 500 0
DWIDTH 2 0
BBX 1 1 0 0
BITMAP
80
ENDCHAR
STARTCHAR slash
ENCODING 47
SWIDTH 1000 0
DWIDTH 4 0
BBX 3 4 0 0
BITMAP
60
60
C0
C0
ENDCHAR
STARTCHAR zero
ENCODING 48
SWIDTH 1250 0
DWIDTH 5 0
BBX 4 4 0 0
BITMAP
70
D0
D0
E0
ENDCHAR
STARTCHAR one
ENCODING 49
SWIDTH 1000 0
DWIDTH 4 0
BBX 3 4 0 0
BITMAP
60
E0
60
60
ENDCHAR
STARTCHAR two
ENCODING 50
SWIDTH 1250 0
DWIDTH 5 0
BBX 4 4 0 0
BITMAP
E0
30
60
F0
ENDCHAR
STARTCHAR three
ENCODING 51
SWIDTH 1250 0
DWIDTH 5 0
BBX 4 4 0 0
BITMAP
E0
70
30
E0
ENDCHAR
STARTCHAR four
ENCODING 52
SWIDTH 1250 0
DWIDTH 5 0
BBX 4 4 0 0
BITMAP
B0
B0
F0
30
ENDCHAR
STARTCHAR five
ENCODING 53
SWIDTH 1250 0
DWIDTH 5 0
BBX 4 4 0 0
BITMAP
F0
E0
30
E0
ENDCHAR
STARTCHAR six
ENCODING 54
SWIDTH 1250 0
DWIDTH 5 0
BBX 4 4 0 0
BITMAP
70
E0
D0
F0
ENDCHAR
STARTCHAR seven
ENCODING 55
SWIDTH 1250 0
DWIDTH 5 0
BBX 4 4 0 0
BITMAP
F0
30
60
60
ENDCHAR
STARTCHAR eight
ENCODING 56
SWIDTH 1250 0
DWIDTH 5 0
BBX 4 4 0 0
BITMAP
70
F0
D0
E0
ENDCHAR
STARTCHAR nine
ENCODING 57
SWIDTH 1250 0
DWIDTH 5 0
BBX 4 4 0 0
BITMAP
F0
B0
F0
30
ENDCHAR
STARTCHAR colon
ENCODING 58
SWIDTH 500 0
DWIDTH 2 0
BBX 1 3 0 0
BITMAP
80
00
80
ENDCHAR
STARTCHAR semicolon
ENCODING 59
SWIDTH 500 0
DWIDTH 2 0
BBX 1 4 0 -1
BITMAP
80
00
80
80
ENDCHAR
STARTCHAR less
ENCODING 60
SWIDTH 1000 0
DWIDTH 4 0
BBX 3 3 0 0
BITMAP
60
C0
60
ENDCHAR
STARTCHAR equal
ENCODING 61
SWIDTH 1000 0
DWIDTH 4 0
BBX 3 3 0 0
BITMAP
E0
00
E0
ENDCHAR
STARTCHAR greater
ENCODING 62
SWIDTH 1000 0
DWIDTH 4 0
BBX 3 3 0 0
BITMAP
C0
60
C0
ENDCHAR
STARTCHAR question
ENCODING 63
SWIDTH 1000 0
DWIDTH 4 0
BBX 3 4 0 0
BITMAP
E0
60
00
60
ENDCHAR
STARTCHAR at
ENCODING 64
SWIDTH 1500 0
DWIDTH 6 0
BBX 5 4 0 0
BITMAP
70
D8
C0
70
ENDCHAR
STARTCHAR A
ENCODING 65
SWIDTH 1250 0
DWIDTH 5 0
BBX 4 4 0 0
BITMAP
60
D0
F0
D0
ENDCHAR
STARTCHAR B
ENCODING 66
SWIDTH 1500 0
DWIDTH 6 0
BBX 5 4 0 0
BITMAP
70
D0
C8
F0
ENDCHAR
STARTCHAR C
ENCODING 67
SWIDTH 1250 0
DWIDTH 5 0
BBX 4 4 0 0
BITMAP
70
C0
C0
70
ENDCHAR
STARTCHAR D
ENCODING 68
SWIDTH 1250 0
DWIDTH 5 0
BBX 4 4 0 0
BITMAP
E0
D0
D0
E0
ENDCHAR
STARTCHAR E
ENCODING 69
SWIDTH 1250 0
DWIDTH 5 0
BBX 4 4 0 0
BITMAP
F0
C0
E0
F0
ENDCHAR
STARTCHAR F
ENCODING 70
SWIDTH 1250 0
DWIDTH 5 0
BBX 4 4 0 0
BITMAP
F0
C0
E0
C0
ENDCHAR
STARTCHAR G
ENCODING 71
SWIDTH 1250 0
DWIDTH 5 0
BBX 4 4 0 0
BITMAP
70
C0
D0
70
ENDCHAR
STARTCHAR H
ENCODING 72
SWIDTH 1250 0
DWIDTH 5 0
BBX 4 4 0 0
BITMAP
D0
D0
F0
D0
ENDCHAR
STARTCHAR I
ENCODING 73
SWIDTH 750 0
DWIDTH 3 0
BBX 2 4 0 0
BITMAP
C0
C0
C0
C0
ENDCHAR
STARTCHAR J
ENCODING 74
SWIDTH 1000 0
DWIDTH 4 0
BBX 3 4 0 0
BITMAP
E0
60
60
C0
ENDCHAR
STARTCHAR K
ENCODING 75
SWIDTH 1250 0
DWIDTH 5 0
BBX 4 4 0 0
BITMAP
D0
D0
E0
D0
ENDCHAR
STARTCHAR L
ENCODING 76
SWIDTH 1250 0
DWIDTH 5 0
BBX 4 4 0 0
BITMAP
C0
C0
C0
70
ENDCHAR
STARTCHAR M
ENCODING 77
SWIDTH 1750 0
DWIDTH 7 0
BBX 6 4 0 0
BITMAP
68
D4
D4
C4
ENDCHAR
STARTCHAR N
ENCODING 78
SWIDTH 1250 0
DWIDTH 5 0
BBX 4 4 0 0
BITMAP
E0
D0
D0
D0
ENDCHAR
STARTCHAR O
ENCODING 79
SWIDTH 1250 0
DWIDTH 5 0
BBX 4 4 0 0
BITMAP
60
D0
D0
60
ENDCHAR
STARTCHAR P
ENCODING 80
SWIDTH 1250 0
DWIDTH 5 0
BBX 4 4 0 0
BITMAP
E0
D0
E0
C0
ENDCHAR
STARTCHAR Q
ENCODING 81
SWIDTH 1500 0
DWIDTH 6 0
BBX 5 4 0 0
BITMAP
60
D0
D0
78
ENDCHAR
STARTCHAR R
ENCODING 82
SWIDTH 1250 0
DWIDTH 5 0
BBX 4 4 0 0
BITMAP
E0
D0
E0
D0
ENDCHAR
STARTCHAR S
ENCODING 83
SWIDTH 1250 0
DWIDTH 5 0
BBX 4 4 0 0
BITMAP
70
E0
30
E0
ENDCHAR
STARTCHAR T
ENCODING 84
SWIDTH 1250 0
DWIDTH 5 0
BBX 4 4 0 0
BITMAP
F0
60
60
60
ENDCHAR
STARTCHAR U
ENCODING 85
SWIDTH 1250 0
DWIDTH 5 0
BBX 4 4 0 0
BITMAP
D0
D0
D0
70
ENDCHAR
STARTCHAR V
ENCODING 86
SWIDTH 1250 0
DWIDTH 5 0
BBX 4 4 0 0
BITMAP
D0
D0
E0
40
ENDCHAR
STARTCHAR W
ENCODING 87
SWIDTH 1750 0
DWIDTH 7 0
BBX 6 4 0 0
BITMAP
C4
D4
D4
68
ENDCHAR
STARTCHAR X
ENCODING 88
SWIDTH 1250 0
DWIDTH 5 0
BBX 4 4 0 0
BITMAP
D0
60
D0
D0
ENDCHAR
STARTCHAR Y
ENCODING 89
SWIDTH 1250 0
DWIDTH 5 0
BBX 4 4 0 0
BITMAP
D0
D0
F0
60
ENDCHAR
STARTCHAR Z
ENCODING 90
SWIDTH 1250 0
DWIDTH 5 0
BBX 4 4 0 0
BITMAP
F0
30
60
F0
ENDCHAR
STARTCHAR bracketleft
ENCODING 91
SWIDTH 1000 0
DWIDTH 4 0
BBX 3 4 0 0
BITMAP
E0
C0
C0
E0
ENDCHAR
STARTCHAR backslash
ENCODING 92
SWIDTH 1000 0
DWIDTH 4 0
BBX 3 4 0 0
BITMAP
C0
C0
60
60
ENDCHAR
STARTCHAR bracketright
ENCODING 93
SWIDTH 1000 0
DWIDTH 4 0
BBX 3 4 0 0
BITMAP
E0
60
60
E0
ENDCHAR
STARTCHAR asciicircum
ENCODING 94
SWIDTH 1000 0
DWIDTH 4 0
BBX 3 2 0 3
BITMAP
40
E0
ENDCHAR
STARTCHAR underscore
ENCODING 95
SWIDTH 1000 0
DWIDTH 4 0
BBX 3 1 0 0
BITMAP
E0
ENDCHAR
STARTCHAR grave
ENCODING 96
SWIDTH 750 0
DWIDTH 3 0
BBX 2 2 0 3
BITMAP
80
C0
ENDCHAR
STARTCHAR a
ENCODING 97
SWIDTH 1250 0
DWIDTH 5 0
BBX 4 3 0 0
BITMAP
70
B0
70
ENDCHAR
STARTCHAR b
ENCODING 98
SWIDTH 1250 0
DWIDTH 5 0
BBX 4 4 0 0
BITMAP
C0
E0
D0
E0
ENDCHAR
STARTCHAR c
ENCODING 99
SWIDTH 1250 0
DWIDTH 5 0
BBX 4 3 0 0
BITMAP
60
C0
70
ENDCHAR
STARTCHAR d
ENCODING 100
SWIDTH 1250 0
DWIDTH 5 0
BBX 4 4 0 0
BITMAP
30
70
B0
70
ENDCHAR
STARTCHAR e
ENCODING 101
SWIDTH 1250 0
DWIDTH 5 0
BBX 4 3 0 0
BITMAP
F0
E0
70
ENDCHAR
STARTCHAR f
ENCODING 102
SWIDTH 1000 0
DWIDTH 4 0
BBX 3 4 0 0
BITMAP
60
C0
E0
C0
ENDCHAR
STARTCHAR g
ENCODING 103
SWIDTH 1250 0
DWIDTH 5 0
BBX 4 4 0 -1
BITMAP
60
B0
70
E0
ENDCHAR
STARTCHAR h
ENCODING 104
SWIDTH 1250 0
DWIDTH 5 0
BBX 4 4 0 0
BITMAP
C0
E0
D0
D0
ENDCHAR
STARTCHAR i
ENCODING 105
SWIDTH 750 0
DWIDTH 3 0
BBX 2 4 0 0
BITMAP
C0
00
C0
C0
ENDCHAR
STARTCHAR j
ENCODING 106
SWIDTH 1000 0
DWIDTH 4 0
BBX 3 4 0 0
BITMAP
60
00
60
E0
ENDCHAR
STARTCHAR k
ENCODING 107
SWIDTH 1250 0
DWIDTH 5 0
BBX 4 4 0 0
BITMAP
C0
D0
E0
D0
ENDCHAR
STARTCHAR l
ENCODING 108
SWIDTH 1000 0
DWIDTH 4 0
BBX 3 4 0 0
BITMAP
C0
C0
C0
60
ENDCHAR
STARTCHAR m
ENCODING 109
SWIDTH 1750 0
DWIDTH 7 0
BBX 6 3 0 0
BITMAP
68
D4
C4
ENDCHAR
STARTCHAR n
ENCODING 110
SWIDTH 1250 0
DWIDTH 5 0
BBX 4 3 0 0
BITMAP
60
D0
D0
ENDCHAR
STARTCHAR o
ENCODING 111
SWIDTH 1250 0
DWIDTH 5 0
BBX 4 3 0 0
BITMAP
60
D0
60
ENDCHAR
STARTCHAR p
ENCODING 112
SWIDTH 1250 0
DWIDTH 5 0
BBX 4 4 0 -1
BITMAP
60
D0
E0
C0
ENDCHAR
STARTCHAR q
ENCODING 113
SWIDTH 1250 0
DWIDTH 5 0
BBX 4 4 0 -1
BITMAP
60
B0
70
30
ENDCHAR
STARTCHAR r
ENCODING 114
SWIDTH 1000 0
DWIDTH 4 0
BBX 3 3 0 0
BITMAP
60
C0
C0
ENDCHAR
STARTCHAR s
ENCODING 115
SWIDTH 1250 0
DWIDTH 5 0
BBX 4 3 0 0
BITMAP
70
60
E0
ENDCHAR
STARTCHAR t
ENCODING 116
SWIDTH 1000 0
DWIDTH 4 0
BBX 3 4 0 0
BITMAP
C0
E0
C0
60
ENDCHAR
STARTCHAR u
ENCODING 117
SWIDTH 1250 0
DWIDTH 5 0
BBX 4 3 0 0
BITMAP
B0
B0
70
ENDCHAR
STARTCHAR v
ENCODING 118
SWIDTH 1250 0
DWIDTH 5 0
BBX 4 3 0 0
BITMAP
D0
E0
40
ENDCHAR
STARTCHAR w
ENCODING 119
SWIDTH 1750 0
DWIDTH 7 0
BBX 6 3 0 0
BITMAP
C4
D4
68
ENDCHAR
STARTCHAR x
ENCODING 120
SWIDTH 1250 0
DWIDTH 5 0
BBX 4 3 0 0
BITMAP
D0
60
D0
ENDCHAR
STARTCHAR y
ENCODING 121
SWIDTH 1250 0
DWIDTH 5 0
BBX 4 3 0 0
BITMAP
B0
70
E0
ENDCHAR
STARTCHAR z
ENCODING 122
SWIDTH 1250 0
DWIDTH 5 0
BBX 4 3 0 0
BITMAP
E0
60
70
ENDCHAR
STARTCHAR braceleft
ENCODING 123
SWIDTH 1250 0
DWIDTH 5 0
BBX 4 4 0 0
BITMAP
30
60
E0
30
ENDCHAR
STARTCHAR bar
ENCODING 124
SWIDTH 1000 0
DWIDTH 4 0
BBX 3 4 0 0
BITMAP
E0
E0
E0
E0
ENDCHAR
STARTCHAR braceright
ENCODING 125
SWIDTH 1250 0
DWIDTH 5 0
BBX 4 4 0 0
BITMAP
C0
70
60
C0
ENDCHAR
STARTCHAR asciitilde
ENCODING 126
SWIDTH 1250 0
DWIDTH 5 0
BBX 4 2 0 3
BITMAP
D0
B0
ENDCHAR
STARTCHAR exclamdown
ENCODING 161
SWIDTH 750 0
DWIDTH 3 0
BBX 2 4 0 0
BITMAP
C0
00
C0
C0
ENDCHAR
STARTCHAR questiondown
ENCODING 191
SWIDTH 1000 0
DWIDTH 4 0
BBX 3 4 0 0
BITMAP
C0
00
C0
E0
ENDCHAR
STARTCHAR Agrave
ENCODING 192
SWIDTH 1250 0
DWIDTH 5 0
BBX 4 7 0 0
BITMAP
40
60
00
60
D0
F0
D0
ENDCHAR
STARTCHAR Aacute
ENCODING 193
SWIDTH 1250 0
DWIDTH 5 0
BBX 4 7 0 0
BITMAP
20
60
00
60
D0
F0
D0
ENDCHAR
STARTCHAR Acircumflex
ENCODING 194
SWIDTH 1250 0
DWIDTH 5 0
BBX 4 7 0 0
BITMAP
60
D0
00
60
D0
F0
D0
ENDCHAR
STARTCHAR Atilde
ENCODING 195
SWIDTH 1250 0
DWIDTH 5 0
BBX 4 7 0 0
BITMAP
D0
B0
00
60
D0
F0
D0
ENDCHAR
STARTCHAR Adieresis
ENCODING 196
SWIDTH 1250 0
DWIDTH 5 0
BBX 4 6 0 0
BITMAP
90
00
60
D0
F0
D0
ENDCHAR
STARTCHAR Aring
ENCODING 197
SWIDTH 1250 0
DWIDTH 5 0
BBX 4 7 0 0
BITMAP
60
D0
60
60
D0
F0
D0
ENDCHAR
STARTCHAR AE
ENCODING 198
SWIDTH 1750 0
DWIDTH 7 0
BBX 6 4 0 0
BITMAP
7C
D0
F8
DC
ENDCHAR
STARTCHAR Ccedilla
ENCODING 199
SWIDTH 1250 0
DWIDTH 5 0
BBX 4 5 0 -1
BITMAP
70
C0
C0
70
20
ENDCHAR
STARTCHAR Egrave
ENCODING 200
SWIDTH 1250 0
DWIDTH 5 0
BBX 4 7 0 0
BITMAP
40
60
00
F0
C0
E0
F0
ENDCHAR
STARTCHAR Eacute
ENCODING 201
SWIDTH 1250 0
DWIDTH 5 0
BBX 4 7 0 0
BITMAP
20
60
00
F0
C0
E0
F0
ENDCHAR
STARTCHAR Ecircumflex
ENCODING 202
SWIDTH 1250 0
DWIDTH 5 0
BBX 4 7 0 0
BITMAP
60
D0
00
F0
C0
E0
F0
ENDCHAR
STARTCHAR Edieresis
ENCODING 203
SWIDTH 1250 0
DWIDTH 5 0
BBX 4 6 0 0
BITMAP
90
00
F0
C0
E0
F0
ENDCHAR
STARTCHAR Igrave
ENCODING 204
SWIDTH 750 0
DWIDTH 3 0
BBX 2 7 0 0
BITMAP
80
C0
00
C0
C0
C0
C0
ENDCHAR
STARTCHAR Iacute
ENCODING 205
SWIDTH 750 0
DWIDTH 3 0
BBX 2 7 0 0
BITMAP
40
C0
00
C0
C0
C0
C0
ENDCHAR
STARTCHAR Icircumflex
ENCODING 206
SWIDTH 1250 0
DWIDTH 5 0
BBX 4 7 0 0
BITMAP
60
D0
00
60
60
60
60
ENDCHAR
STARTCHAR Idieresis
ENCODING 207
SWIDTH 1250 0
DWIDTH 5 0
BBX 4 6 0 0
BITMAP
90
00
60
60
60
60
ENDCHAR
STARTCHAR Eth
ENCODING 208
SWIDTH 1500 0
DWIDTH 6 0
BBX 5 4 0 0
BITMAP
70
68
F8
70
ENDCHAR
STARTCHAR Ntilde
ENCODING 209
SWIDTH 1250 0
DWIDTH 5 0
BBX 4 7 0 0
BITMAP
D0
B0
00
E0
D0
D0
D0
ENDCHAR
STARTCHAR Ograve
ENCODING 210
SWIDTH 1250 0
DWIDTH 5 0
BBX 4 7 0 0
BITMAP
40
60
00
60
D0
D0
60
ENDCHAR
STARTCHAR Oacute
ENCODING 211
SWIDTH 1250 0
DWIDTH 5 0
BBX 4 7 0 0
BITMAP
20
60
00
60
D0
D0
60
ENDCHAR
STARTCHAR Ocircumflex
ENCODING 212
SWIDTH 1250 0
DWIDTH 5 0
BBX 4 7 0 0
BITMAP
60
D0
00
60
D0
D0
60
ENDCHAR
STARTCHAR Otilde
ENCODING 213
SWIDTH 1250 0
DWIDTH 5 0
BBX 4 7 0 0
BITMAP
D0
B0
00
60
D0
D0
60
ENDCHAR
STARTCHAR Odieresis
ENCODING 214
SWIDTH 1250 0
DWIDTH 5 0
BBX 4 6 0 0
BITMAP
90
00
60
D0
D0
60
ENDCHAR
STARTCHAR Ugrave
ENCODING 217
SWIDTH 1250 0
DWIDTH 5 0
BBX 4 7 0 0
BITMAP
40
60
00
D0
D0
D0
70
ENDCHAR
STARTCHAR Uacute
ENCODING 218
SWIDTH 1250 0
DWIDTH 5 0
BBX 4 7 0 0
BITMAP
20
60
00
D0
D0
D0
70
ENDCHAR
STARTCHAR Ucircumflex
ENCODING 219
SWIDTH 1250 0
DWIDTH 5 0
BBX 4 7 0 0
BITMAP
60
D0
00
D0
D0
D0
70
ENDCHAR
STARTCHAR Udieresis
ENCODING 220
SWIDTH 1250 0
DWIDTH 5 0
BBX 4 6 0 0
BITMAP
90
00
D0
D0
D0
70
ENDCHAR
STARTCHAR Yacute
ENCODING 221
SWIDTH 1250 0
DWIDTH 5 0
BBX 4 7 0 0
BITMAP
20
60
00
D0
D0
F0
60
ENDCHAR
STARTCHAR Thorn
ENCODING 222
SWIDTH 1250 0
DWIDTH 5 0
BBX 4 5 0 0
BITMAP
C0
E0
D0
E0
C0
ENDCHAR
STARTCHAR germandbls
ENCODING 223
SWIDTH 1500 0
DWIDTH 6 0
BBX 5 4 0 0
BITMAP
70
D0
C8
D0
ENDCHAR
STARTCHAR agrave
ENCODING 224
SWIDTH 1250 0
DWIDTH 5 0
BBX 4 6 0 0
BITMAP
40
60
00
70
B0
70
ENDCHAR
STARTCHAR aacute
ENCODING 225
SWIDTH 1250 0
DWIDTH 5 0
BBX 4 6 0 0
BITMAP
20
60
00
70
B0
70
ENDCHAR
STARTCHAR acircumflex
ENCODING 226
SWIDTH 1250 0
DWIDTH 5 0
BBX 4 6 0 0
BITMAP
60
D0
00
70
B0
70
ENDCHAR
STARTCHAR atilde
ENCODING 227
SWIDTH 1250 0
DWIDTH 5 0
BBX 4 6 0 0
BITMAP
D0
B0
00
70
B0
70
ENDCHAR
STARTCHAR adieresis
ENCODING 228
SWIDTH 1250 0
DWIDTH 5 0
BBX 4 5 0 0
BITMAP
90
00
70
B0
70
ENDCHAR
STARTCHAR aring
ENCODING 229
SWIDTH 1250 0
DWIDTH 5 0
BBX 4 7 0 0
BITMAP
60
D0
60
00
70
B0
70
ENDCHAR
STARTCHAR ae
ENCODING 230
SWIDTH 1750 0
DWIDTH 7 0
BBX 6 3 0 0
BITMAP
7C
D8
7C
ENDCHAR
STARTCHAR ccedilla
ENCODING 231
SWIDTH 1250 0
DWIDTH 5 0
BBX 4 4 0 -1
BITMAP
60
C0
70
20
ENDCHAR
STARTCHAR egrave
ENCODING 232
SWIDTH 1250 0
DWIDTH 5 0
BBX 4 6 0 0
BITMAP
40
60
00
F0
E0
70
ENDCHAR
STARTCHAR eacute
ENCODING 233
SWIDTH 1250 0
DWIDTH 5 0
BBX 4 6 0 0
BITMAP
20
60
00
F0
E0
70
ENDCHAR
STARTCHAR ecircumflex
ENCODING 234
SWIDTH 1250 0
DWIDTH 5 0
BBX 4 6 0 0
BITMAP
60
D0
00
F0
E0
70
ENDCHAR
STARTCHAR edieresis
ENCODING 235
SWIDTH 1250 0
DWIDTH 5 0
BBX 4 5 0 0
BITMAP
90
00
F0
E0
70
ENDCHAR
STARTCHAR igrave
ENCODING 236
SWIDTH 750 0
DWIDTH 3 0
BBX 2 5 0 0
BITMAP
80
C0
00
C0
C0
ENDCHAR
STARTCHAR iacute
ENCODING 237
SWIDTH 750 0
DWIDTH 3 0
BBX 2 5 0 0
BITMAP
40
C0
00
C0
C0
ENDCHAR
STARTCHAR icircumflex
ENCODING 238
SWIDTH 1250 0
DWIDTH 5 0
BBX 4 5 0 0
BITMAP
60
D0
00
60
60
ENDCHAR
STARTCHAR idieresis
ENCODING 239
SWIDTH 1250 0
DWIDTH 5 0
BBX 4 4 0 0
BITMAP
90
00
60
60
ENDCHAR
STARTCHAR eth
ENCODING 240
SWIDTH 1500 0
DWIDTH 6 0
BBX 5 4 0 0
BITMAP
10
78
D0
70
ENDCHAR
STARTCHAR ntilde
ENCODING 241
SWIDTH 1250 0
DWIDTH 5 0
BBX 4 6 0 0
BITMAP
D0
B0
00
60
D0
D0
ENDCHAR
STARTCHAR ograve
ENCODING 242
SWIDTH 1250 0
DWIDTH 5 0
BBX 4 6 0 0
BITMAP
40
60
00
60
D0
60
ENDCHAR
STARTCHAR oacute
ENCODING 243
SWIDTH 1250 0
DWIDTH 5 0
BBX 4 6 0 0
BITMAP
20
60
00
60
D0
60
ENDCHAR
STARTCHAR ocircumflex
ENCODING 244
SWIDTH 1250 0
DWIDTH 5 0
BBX 4 6 0 0
BITMAP
60
D0
00
60
D0
60
ENDCHAR
STARTCHAR otilde
ENCODING 245
SWIDTH 1250 0
DWIDTH 5 0
BBX 4 6 0 0
BITMAP
D0
B0
00
60
D0
60
ENDCHAR
STARTCHAR odieresis
ENCODING 246
SWIDTH 1250 0
DWIDTH 5 0
BBX 4 5 0 0
BITMAP
90
00
60
D0
60
ENDCHAR
STARTCHAR ugrave
ENCODING 249
SWIDTH 1250 0
DWIDTH 5 0
BBX 4 6 0 0
BITMAP
40
60
00
B0
B0
70
ENDCHAR
STARTCHAR uacute
ENCODING 250
SWIDTH 1250 0
DWIDTH 5 0
BBX 4 6 0 0
BITMAP
20
60
00
B0
B0
70
ENDCHAR
STARTCHAR ucircumflex
ENCODING 251
SWIDTH 1250 0
DWIDTH 5 0
BBX 4 6 0 0
BITMAP
60
D0
00
B0
B0
70
ENDCHAR
STARTCHAR udieresis
ENCODING 252
SWIDTH 1250 0
DWIDTH 5 0
BBX 4 5 0 0
BITMAP
90
00
B0
B0
70
ENDCHAR
STARTCHAR yacute
ENCODING 253
SWIDTH 1250 0
DWIDTH 5 0
BBX 4 6 0 0
BITMAP
20
60
00
B0
70
E0
ENDCHAR
STARTCHAR thorn
ENCODING 254
SWIDTH 1500 0
DWIDTH 6 0
BBX 5 5 0 0
BITMAP
C0
F0
C8
F0
C0
ENDCHAR
STARTCHAR ydieresis
ENCODING 255
SWIDTH 1250 0
DWIDTH 5 0
BBX 4 5 0 0
BITMAP
90
00
B0
70
E0
ENDCHAR
STARTCHAR OE
ENCODING 338
SWIDTH 1750 0
DWIDTH 7 0
BBX 6 4 0 0
BITMAP
7C
D0
D8
7C
ENDCHAR
STARTCHAR oe
ENCODING 339
SWIDTH 1750 0
DWIDTH 7 0
BBX 6 3 0 0
BITMAP
6C
D8
6C
ENDCHAR
STARTCHAR Ydieresis
ENCODING 376
SWIDTH 1250 0
DWIDTH 5 0
BBX 4 6 0 0
BITMAP
90
00
D0
D0
F0
60
ENDCHAR
STARTCHAR Ygrave
ENCODING 7922
SWIDTH 1250 0
DWIDTH 5 0
BBX 4 7 0 0
BITMAP
40
60
00
D0
D0
F0
60
ENDCHAR
STARTCHAR ygrave
ENCODING 7923
SWIDTH 1250 0
DWIDTH 5 0
BBX 4 6 0 0
BITMAP
40
60
00
B0
70
E0
ENDCHAR
STARTCHAR uni220E
ENCODING 8718
SWIDTH 1250 0
DWIDTH 5 0
BBX 4 4 0 0
BITMAP
F0
F0
F0
F0
ENDCHAR
STARTCHAR .notdef
ENCODING -1
SWIDTH 250 0
DWIDTH 1 0
BBX 1 1 0 0
BITMAP
00
ENDCHAR
ENDFONT
